<?xml version="1.0" encoding="UTF-8"?>
<!DOCTYPE svg PUBLIC "-//W3C//DTD SVG 1.1//EN" "http://www.w3.org/Graphics/SVG/1.1/DTD/svg11.dtd">
<svg xmlns="http://www.w3.org/2000/svg" version="1.1" width="1600px" height="1600px" style="shape-rendering:geometricPrecision; text-rendering:geometricPrecision; image-rendering:optimizeQuality; fill-rule:evenodd; clip-rule:evenodd" xmlns:xlink="http://www.w3.org/1999/xlink">
<g><path style="opacity:0.999" fill="#1c1c1c" d="M 559.5,458.5 C 582.868,456.697 603.868,462.697 622.5,476.5C 624.262,478.417 626.429,479.75 629,480.5C 637.446,476.798 646.28,474.298 655.5,473C 675.843,470.414 695.51,472.914 714.5,480.5C 725.652,471.922 737.985,465.422 751.5,461C 766.418,458.053 781.418,457.72 796.5,460C 798.848,460.346 800.681,461.513 802,463.5C 805.968,470.996 808.301,478.996 809,487.5C 810.255,500.078 809.088,512.411 805.5,524.5C 808.833,524.5 812.167,524.5 815.5,524.5C 845.03,527.561 874.03,533.727 902.5,543C 920.196,551.016 937.196,560.349 953.5,571C 981.59,595.204 1010.59,618.204 1040.5,640C 1057.88,652.68 1075.54,664.847 1093.5,676.5C 1093.97,677.906 1094.97,678.573 1096.5,678.5C 1096.97,679.906 1097.97,680.573 1099.5,680.5C 1099.97,681.906 1100.97,682.573 1102.5,682.5C 1116.31,692.907 1130.64,702.573 1145.5,711.5C 1148.49,714 1151.83,716 1155.5,717.5C 1157.98,720.241 1160.98,722.241 1164.5,723.5C 1165.49,723.328 1166.16,723.662 1166.5,724.5C 1166.37,725.376 1166.7,726.043 1167.5,726.5C 1175.06,731.11 1182.73,735.444 1190.5,739.5C 1190.97,740.906 1191.97,741.573 1193.5,741.5C 1200,746.255 1207,750.255 1214.5,753.5C 1215.49,753.328 1216.16,753.662 1216.5,754.5C 1216.97,755.906 1217.97,756.573 1219.5,756.5C 1245.7,772.099 1273.03,785.265 1301.5,796C 1306.04,797.74 1310.7,798.906 1315.5,799.5C 1324.13,802.539 1333.13,804.206 1342.5,804.5C 1345.87,804.674 1349.21,805.174 1352.5,806C 1350.38,807.049 1348.72,808.549 1347.5,810.5C 1345.97,810.427 1344.97,811.094 1344.5,812.5C 1342.97,812.427 1341.97,813.094 1341.5,814.5C 1341.5,815.167 1341.17,815.5 1340.5,815.5C 1338.97,815.427 1337.97,816.094 1337.5,817.5C 1333.29,819.435 1329.63,822.102 1326.5,825.5C 1326.16,826.338 1325.49,826.672 1324.5,826.5C 1321.8,826.845 1319.8,828.178 1318.5,830.5C 1318.16,831.338 1317.49,831.672 1316.5,831.5C 1312.83,833 1309.49,835 1306.5,837.5C 1303.41,838.213 1300.41,839.213 1297.5,840.5C 1295.38,840.468 1294.05,841.468 1293.5,843.5C 1292.22,844.931 1290.55,845.598 1288.5,845.5C 1283.12,846.734 1278.12,848.734 1273.5,851.5C 1266.53,852.421 1259.87,854.088 1253.5,856.5C 1248.75,858.031 1243.75,858.698 1238.5,858.5C 1221.45,858.861 1204.45,858.194 1187.5,856.5C 1182.52,856.419 1177.86,855.419 1173.5,853.5C 1170.5,851.723 1167.16,850.723 1163.5,850.5C 1159.94,848.081 1155.94,846.414 1151.5,845.5C 1149.6,845.204 1147.93,844.537 1146.5,843.5C 1144.81,841.182 1142.48,840.182 1139.5,840.5C 1137.42,838.127 1134.75,836.794 1131.5,836.5C 1130.34,834.75 1128.67,833.75 1126.5,833.5C 1124.78,831.782 1122.78,830.449 1120.5,829.5C 1118.85,829.34 1117.51,828.674 1116.5,827.5C 1116.03,826.094 1115.03,825.427 1113.5,825.5C 1113.03,824.094 1112.03,823.427 1110.5,823.5C 1110.03,822.094 1109.03,821.427 1107.5,821.5C 1104.79,818.791 1101.79,816.458 1098.5,814.5C 1098.03,813.094 1097.03,812.427 1095.5,812.5C 1094.74,810.738 1093.4,809.738 1091.5,809.5C 1090.09,807.086 1088.09,805.419 1085.5,804.5C 1083.76,801.757 1081.43,799.757 1078.5,798.5C 1077.83,797.167 1076.83,796.167 1075.5,795.5C 1071.5,790.833 1067.17,786.5 1062.5,782.5C 1061.83,781.167 1060.83,780.167 1059.5,779.5C 1057.83,777.167 1055.83,775.167 1053.5,773.5C 1053.17,772.5 1052.5,771.833 1051.5,771.5C 1050.92,769.251 1049.59,767.585 1047.5,766.5C 1046.5,766.167 1045.83,765.5 1045.5,764.5C 1044.58,761.911 1042.91,759.911 1040.5,758.5C 1039.86,756.205 1038.53,754.539 1036.5,753.5C 1036.57,751.973 1035.91,750.973 1034.5,750.5C 1033.5,750.167 1032.83,749.5 1032.5,748.5C 1032.45,746.368 1031.45,745.035 1029.5,744.5C 1029.45,742.368 1028.45,741.035 1026.5,740.5C 1026.57,738.973 1025.91,737.973 1024.5,737.5C 1024.45,735.368 1023.45,734.035 1021.5,733.5C 1020.07,730.953 1018.4,728.619 1016.5,726.5C 1016.69,724.897 1016.19,723.563 1015,722.5C 1014.72,725.058 1015.22,727.392 1016.5,729.5C 1017.92,736.009 1018.92,742.676 1019.5,749.5C 1020.63,759.46 1022.63,769.127 1025.5,778.5C 1025.5,778.833 1025.5,779.167 1025.5,779.5C 1025.21,781.735 1025.54,783.735 1026.5,785.5C 1026.96,788.33 1027.63,790.997 1028.5,793.5C 1029.37,795.717 1029.7,798.05 1029.5,800.5C 1030.01,804.083 1031.01,807.417 1032.5,810.5C 1032.43,814.57 1033.43,818.237 1035.5,821.5C 1037.47,831.401 1040.8,840.735 1045.5,849.5C 1048.13,856.617 1051.79,863.117 1056.5,869C 1053.39,872.392 1050.05,875.558 1046.5,878.5C 1037.55,882.257 1028.55,885.59 1019.5,888.5C 1016.27,888.676 1013.27,889.343 1010.5,890.5C 998.016,891.771 985.682,893.105 973.5,894.5C 959.167,894.5 944.833,894.5 930.5,894.5C 929.872,888.4 928.705,882.4 927,876.5C 924.953,866.428 928.453,858.928 937.5,854C 941.213,852.337 944.88,850.837 948.5,849.5C 957.734,849.318 966.734,848.318 975.5,846.5C 976.833,846.5 978.167,846.5 979.5,846.5C 979.708,842.915 978.375,840.249 975.5,838.5C 974.19,835.527 972.19,833.193 969.5,831.5C 969.167,830.5 968.5,829.833 967.5,829.5C 966.833,829.5 966.5,829.167 966.5,828.5C 966.027,827.094 965.027,826.427 963.5,826.5C 963.027,825.094 962.027,824.427 960.5,824.5C 959.713,822.896 958.38,822.229 956.5,822.5C 956.027,821.094 955.027,820.427 953.5,820.5C 952.833,819.833 952.167,819.167 951.5,818.5C 949.648,815.558 946.981,813.558 943.5,812.5C 939.548,811.506 935.548,810.84 931.5,810.5C 929.847,810.34 928.514,809.674 927.5,808.5C 925.824,806.166 923.491,805.166 920.5,805.5C 920.167,805.5 919.833,805.5 919.5,805.5C 918.432,804.566 917.099,804.232 915.5,804.5C 915.037,807.221 914.371,809.888 913.5,812.5C 911.264,816.645 909.264,820.978 907.5,825.5C 904.773,829.577 902.439,833.91 900.5,838.5C 898.738,839.262 897.738,840.596 897.5,842.5C 896.026,843.436 895.026,844.77 894.5,846.5C 892.738,847.262 891.738,848.596 891.5,850.5C 887.833,853.5 884.5,856.833 881.5,860.5C 877.518,863.152 873.851,866.152 870.5,869.5C 866.182,870.992 862.182,872.992 858.5,875.5C 857.486,876.674 856.153,877.34 854.5,877.5C 846.168,878.833 837.835,880.166 829.5,881.5C 818.186,882.468 806.852,883.135 795.5,883.5C 793.052,882.527 790.385,882.194 787.5,882.5C 787.784,880.585 787.451,878.919 786.5,877.5C 786.5,876.833 786.5,876.167 786.5,875.5C 786.5,869.833 786.5,864.167 786.5,858.5C 786.198,855.941 786.532,853.607 787.5,851.5C 788.674,850.486 789.34,849.153 789.5,847.5C 792.5,843.833 795.833,840.5 799.5,837.5C 804.05,836.537 808.383,835.203 812.5,833.5C 821.833,833.5 831.167,833.5 840.5,833.5C 840.769,829.069 840.436,824.735 839.5,820.5C 838.868,816.569 837.201,813.235 834.5,810.5C 834.262,808.596 833.262,807.262 831.5,806.5C 831.25,804.326 830.25,802.659 828.5,801.5C 827.974,799.77 826.974,798.436 825.5,797.5C 825.262,795.596 824.262,794.262 822.5,793.5C 822.262,791.596 821.262,790.262 819.5,789.5C 817.67,785.856 816.003,786.19 814.5,790.5C 812.229,792.612 810.896,795.279 810.5,798.5C 809.115,799.574 807.949,800.907 807,802.5C 804.89,806.422 803.057,810.422 801.5,814.5C 798.393,818.379 796.059,822.712 794.5,827.5C 792.992,829.181 791.992,831.181 791.5,833.5C 791.672,834.492 791.338,835.158 790.5,835.5C 789.599,836.29 788.932,837.29 788.5,838.5C 786.74,843.786 784.407,848.786 781.5,853.5C 780.264,855.649 779.264,857.982 778.5,860.5C 778.737,861.791 778.404,862.791 777.5,863.5C 776.069,864.78 775.402,866.447 775.5,868.5C 775.5,869.167 775.5,869.833 775.5,870.5C 774.883,870.611 774.383,870.944 774,871.5C 773.304,874.478 772.804,877.478 772.5,880.5C 772.737,881.791 772.404,882.791 771.5,883.5C 769.1,885.296 767.433,887.63 766.5,890.5C 766.5,891.167 766.167,891.5 765.5,891.5C 762.474,894.195 759.474,896.862 756.5,899.5C 754.973,899.427 753.973,900.094 753.5,901.5C 751.847,901.66 750.514,902.326 749.5,903.5C 749.158,904.338 748.492,904.672 747.5,904.5C 745.447,904.402 743.78,905.069 742.5,906.5C 737.303,907.522 732.303,908.855 727.5,910.5C 714.365,912.784 701.031,913.117 687.5,911.5C 681.726,910.054 675.726,909.388 669.5,909.5C 665.881,909.119 662.548,908.119 659.5,906.5C 659.909,902.124 660.575,897.79 661.5,893.5C 662.87,890.381 663.87,887.048 664.5,883.5C 666.065,881.491 667.065,879.157 667.5,876.5C 669.47,873.672 671.303,870.672 673,867.5C 675.705,864.964 678.205,862.297 680.5,859.5C 684.537,856.82 688.537,854.154 692.5,851.5C 695.428,851.435 698.095,850.768 700.5,849.5C 705.5,849.5 710.5,849.5 715.5,849.5C 709.455,830.276 705.455,810.609 703.5,790.5C 697.824,790.334 692.157,790.501 686.5,791C 677.357,804.138 668.357,817.304 659.5,830.5C 657.738,831.262 656.738,832.596 656.5,834.5C 652.788,837.211 649.788,840.544 647.5,844.5C 647.5,845.167 647.167,845.5 646.5,845.5C 643.167,848.167 640.167,851.167 637.5,854.5C 636.167,855.167 635.167,856.167 634.5,857.5C 634.5,858.167 634.167,858.5 633.5,858.5C 627.913,861.79 622.913,865.79 618.5,870.5C 615.669,871.079 613.336,872.412 611.5,874.5C 611.027,875.906 610.027,876.573 608.5,876.5C 599.795,880.521 591.128,884.521 582.5,888.5C 581.833,888.5 581.167,888.5 580.5,888.5C 578.447,888.402 576.78,889.069 575.5,890.5C 574.833,890.5 574.167,890.5 573.5,890.5C 569.226,890.87 565.226,891.87 561.5,893.5C 559.052,894.473 556.385,894.806 553.5,894.5C 538.775,894.82 524.109,894.153 509.5,892.5C 511.523,874.736 518.19,859.07 529.5,845.5C 533.111,843.356 536.778,841.19 540.5,839C 543.393,837.851 546.393,837.351 549.5,837.5C 556.524,837.435 563.524,837.768 570.5,838.5C 574.167,839.167 577.833,839.833 581.5,840.5C 583.808,835.411 585.642,830.078 587,824.5C 587.667,817.5 587.667,810.5 587,803.5C 578.752,775.668 571.086,747.668 564,719.5C 560.166,698.993 558.832,678.326 560,657.5C 560.5,656 561,654.5 561.5,653C 548.749,643.419 537.083,632.586 526.5,620.5C 529.828,617.342 533.328,614.342 537,611.5C 537.667,610.5 537.667,609.5 537,608.5C 525.603,599.782 516.437,589.282 509.5,577C 510.439,572.849 511.772,568.849 513.5,565C 522.55,564.847 531.55,564.18 540.5,563C 545.674,561.249 550.341,558.749 554.5,555.5C 567.588,540.674 571.088,523.674 565,504.5C 562.796,497.09 559.296,490.424 554.5,484.5C 554.44,483.957 554.107,483.624 553.5,483.5C 553.167,487.5 552.833,491.5 552.5,495.5C 552.276,501.098 552.943,506.431 554.5,511.5C 555.841,518.02 558.174,524.187 561.5,530C 557.532,533.325 553.532,536.658 549.5,540C 548.551,540.617 547.718,540.451 547,539.5C 532.931,515.469 530.931,490.469 541,464.5C 542.637,462.19 544.804,460.69 547.5,460C 551.528,459.608 555.528,459.108 559.5,458.5 Z"/></g>
<g><path style="opacity:0.102" fill="#dbdbdb" d="M 579.5,456.5 C 595.428,458.972 609.762,464.972 622.5,474.5C 622.5,475.167 622.5,475.833 622.5,476.5C 603.868,462.697 582.868,456.697 559.5,458.5C 566.167,457.833 572.833,457.167 579.5,456.5 Z"/></g>
<g><path style="opacity:0.148" fill="#e6e6e6" d="M 823.5,524.5 C 820.833,524.5 818.167,524.5 815.5,524.5C 812.167,524.5 808.833,524.5 805.5,524.5C 809.088,512.411 810.255,500.078 809,487.5C 808.301,478.996 805.968,470.996 802,463.5C 800.681,461.513 798.848,460.346 796.5,460C 781.418,457.72 766.418,458.053 751.5,461C 737.985,465.422 725.652,471.922 714.5,480.5C 695.51,472.914 675.843,470.414 655.5,473C 646.28,474.298 637.446,476.798 629,480.5C 626.429,479.75 624.262,478.417 622.5,476.5C 622.5,475.833 622.5,475.167 622.5,474.5C 624.774,475.597 626.941,476.93 629,478.5C 652.678,469.648 676.844,468.148 701.5,474C 705.774,474.897 709.774,476.397 713.5,478.5C 725.358,469.904 738.358,463.404 752.5,459C 768.168,455.695 783.834,455.695 799.5,459C 802.518,461.015 804.852,463.682 806.5,467C 807.299,471.991 808.466,476.825 810,481.5C 810.667,492.5 810.667,503.5 810,514.5C 809.342,517.285 808.509,519.951 807.5,522.5C 813.051,522.527 818.384,523.194 823.5,524.5 Z"/></g>
<g><path style="opacity:1" fill="#959595" d="M 571.5,476.5 C 586.201,476.33 599.201,480.83 610.5,490C 605.721,493.478 601.221,497.311 597,501.5C 599.782,506.468 603.616,510.802 608.5,514.5C 612.467,510.52 616.801,507.02 621.5,504C 622.996,503.493 624.163,503.993 625,505.5C 631.576,513.985 636.576,523.318 640,533.5C 640.629,537.871 640.463,542.204 639.5,546.5C 632.394,543.907 625.061,543.074 617.5,544C 599.188,550.309 582.855,559.976 568.5,573C 561.291,580.041 554.291,587.208 547.5,594.5C 541.975,591.319 537.975,586.985 535.5,581.5C 563.576,576.924 579.742,560.591 584,532.5C 586.118,512.317 581.952,493.651 571.5,476.5 Z"/></g>
<g><path style="opacity:1" fill="#969696" d="M 738.5,548.5 C 735.597,546.352 732.264,544.852 728.5,544C 722.984,543.183 717.65,543.349 712.5,544.5C 710.063,544.756 707.729,545.423 705.5,546.5C 703.516,541.7 703.016,536.7 704,531.5C 707.753,521.446 713.419,512.779 721,505.5C 722.582,507.029 724.415,507.529 726.5,507C 729.667,503.833 732.833,500.667 736,497.5C 736.667,496.5 736.667,495.5 736,494.5C 734.702,493.44 733.535,492.274 732.5,491C 743.493,480.835 756.493,476.335 771.5,477.5C 761.68,492.789 758.18,509.455 761,527.5C 764.822,555.989 780.656,573.823 808.5,581C 803.915,584.873 799.081,588.373 794,591.5C 777.929,573.917 759.429,559.584 738.5,548.5 Z"/></g>
<g><path style="opacity:1" fill="#efefef" d="M 788.5,483.5 C 789.75,483.577 790.583,484.244 791,485.5C 792.988,499.1 791.322,512.1 786,524.5C 784.289,527.255 782.122,529.589 779.5,531.5C 774.864,514.05 777.864,498.05 788.5,483.5 Z"/></g>
<g><path style="opacity:1" fill="#4c4c4c" d="M 686.5,549.5 C 684.439,556.912 682.939,564.579 682,572.5C 681.493,583.205 680.659,593.871 679.5,604.5C 674.014,602.185 668.347,601.852 662.5,603.5C 662.16,584.809 661.327,566.143 660,547.5C 659.878,545.563 659.045,544.23 657.5,543.5C 657.142,539.491 656.642,535.491 656,531.5C 651.164,519.833 645.831,508.499 640,497.5C 639.251,496.365 639.417,495.365 640.5,494.5C 661.832,487.9 683.165,487.9 704.5,494.5C 704.908,497.599 703.741,499.933 701,501.5C 697.814,509.269 694.48,516.936 691,524.5C 688.667,532.669 687.167,541.002 686.5,549.5 Z"/></g>
<g><path style="opacity:1" fill="#f0f0f0" d="M 579.5,456.5 C 572.833,457.167 566.167,457.833 559.5,458.5C 555.528,459.108 551.528,459.608 547.5,460C 544.804,460.69 542.637,462.19 541,464.5C 530.931,490.469 532.931,515.469 547,539.5C 547.718,540.451 548.551,540.617 549.5,540C 553.532,536.658 557.532,533.325 561.5,530C 558.174,524.187 555.841,518.02 554.5,511.5C 553.342,502.344 553.342,493.344 554.5,484.5C 559.296,490.424 562.796,497.09 565,504.5C 571.088,523.674 567.588,540.674 554.5,555.5C 553.833,555.5 553.167,555.5 552.5,555.5C 552.712,553.616 553.712,552.283 555.5,551.5C 551.625,550.461 548.792,548.128 547,544.5C 542.236,536.217 538.236,527.55 535,518.5C 533.987,511.021 533.153,503.521 532.5,496C 533.213,488.154 534.047,480.32 535,472.5C 536.475,469.079 538.141,465.746 540,462.5C 541.214,460.951 542.714,459.785 544.5,459C 556.058,456.852 567.725,456.019 579.5,456.5 Z"/></g>
<g><path style="opacity:1" fill="#c0c0c0" d="M 554.5,484.5 C 553.342,493.344 553.342,502.344 554.5,511.5C 552.943,506.431 552.276,501.098 552.5,495.5C 552.833,491.5 553.167,487.5 553.5,483.5C 554.107,483.624 554.44,483.957 554.5,484.5 Z"/></g>
<g><path style="opacity:0.017" fill="#d7d7d7" d="M 815.5,524.5 C 818.167,524.5 820.833,524.5 823.5,524.5C 864.809,526.9 903.142,538.4 938.5,559C 943.435,561.606 948.102,564.606 952.5,568C 995.292,604.404 1039.96,638.404 1086.5,670C 1089.29,671.719 1091.62,673.885 1093.5,676.5C 1075.54,664.847 1057.88,652.68 1040.5,640C 1010.59,618.204 981.59,595.204 953.5,571C 937.196,560.349 920.196,551.016 902.5,543C 874.03,533.727 845.03,527.561 815.5,524.5 Z"/></g>
<g><path style="opacity:1" fill="#4f4f4f" d="M 793.5,542.5 C 802.657,541.342 811.991,541.176 821.5,542C 823.058,542.21 824.391,542.71 825.5,543.5C 814.86,542.625 804.194,542.291 793.5,542.5 Z"/></g>
<g><path style="opacity:1" fill="#656565" d="M 712.5,544.5 C 717.65,543.349 722.984,543.183 728.5,544C 732.264,544.852 735.597,546.352 738.5,548.5C 730.199,545.01 721.532,543.677 712.5,544.5 Z"/></g>
<g><path style="opacity:1" fill="#f6f6f6" d="M 793.5,542.5 C 804.194,542.291 814.86,542.625 825.5,543.5C 867.043,546.846 905.043,560.013 939.5,583C 957.802,595.467 970.135,612.3 976.5,633.5C 976.649,634.552 976.483,635.552 976,636.5C 956.311,612.141 932.478,592.974 904.5,579C 866.847,560.734 827.181,549.4 785.5,545C 786.056,544.617 786.389,544.117 786.5,543.5C 788.806,543.007 791.139,542.674 793.5,542.5 Z"/></g>
<g><path style="opacity:1" fill="#989898" d="M 786.5,543.5 C 786.389,544.117 786.056,544.617 785.5,545C 827.181,549.4 866.847,560.734 904.5,579C 932.478,592.974 956.311,612.141 976,636.5C 976.483,635.552 976.649,634.552 976.5,633.5C 980.595,644.518 984.095,655.851 987,667.5C 995.593,721.872 1006.09,775.872 1018.5,829.5C 1018.68,831.981 1017.68,833.814 1015.5,835C 1009.53,837.495 1003.53,839.662 997.5,841.5C 993.456,829.937 986.456,820.437 976.5,813C 959.668,802.749 942.001,794.416 923.5,788C 910.651,782.781 899.151,775.615 889,766.5C 882.5,758.688 878.5,749.688 877,739.5C 875.769,730.208 875.269,720.874 875.5,711.5C 876.972,707.081 877.638,702.414 877.5,697.5C 882.258,671.987 892.924,649.321 909.5,629.5C 906.683,626.182 903.683,623.015 900.5,620C 898.956,618.813 897.289,618.48 895.5,619C 874.569,644.962 861.902,674.462 857.5,707.5C 857.048,703.837 856.548,700.17 856,696.5C 855.059,698.727 853.892,700.727 852.5,702.5C 853.292,696.87 853.625,691.203 853.5,685.5C 847.839,685.907 842.172,686.24 836.5,686.5C 835.363,700.715 831.863,714.382 826,727.5C 808.443,762.87 790.277,797.87 771.5,832.5C 754.285,835.032 738.952,831.032 725.5,820.5C 719.99,789.076 718.157,757.409 720,725.5C 720.512,717.7 721.678,710.034 723.5,702.5C 719.169,699.012 714.669,695.678 710,692.5C 709.5,692.833 709,693.167 708.5,693.5C 705.161,703.205 703.494,713.205 703.5,723.5C 686.61,724.981 670.276,728.815 654.5,735C 648.882,738.779 644.549,743.613 641.5,749.5C 631.154,739.472 624.154,727.472 620.5,713.5C 614.953,715.303 609.286,716.637 603.5,717.5C 610.119,741.913 623.785,761.08 644.5,775C 652.466,779.191 660.466,783.025 668.5,786.5C 655.724,806.944 640.724,825.611 623.5,842.5C 616.695,839.537 610.529,835.537 605,830.5C 604.517,829.552 604.351,828.552 604.5,827.5C 605.996,816.094 605.496,804.76 603,793.5C 598.834,777.995 594.167,762.661 589,747.5C 584.998,732.99 581.832,718.323 579.5,703.5C 578.763,689.837 578.097,676.171 577.5,662.5C 584.17,665 590.837,667.5 597.5,670C 602.856,671.059 608.19,672.226 613.5,673.5C 614.442,673.392 615.275,673.059 616,672.5C 616.186,670.1 616.686,667.766 617.5,665.5C 653.684,694.787 690.018,694.787 726.5,665.5C 727.474,667.743 727.808,670.076 727.5,672.5C 764,667.028 793.666,649.695 816.5,620.5C 812.496,616.663 808.329,612.996 804,609.5C 800.204,611.128 798.538,613.794 799,617.5C 797.961,618.71 796.794,619.71 795.5,620.5C 795.36,618.876 796.027,617.71 797.5,617C 795.431,614.466 792.765,613.299 789.5,613.5C 807.309,605.149 822.809,593.483 836,578.5C 836.167,577.333 836.333,576.167 836.5,575C 835.346,571.196 834.346,567.363 833.5,563.5C 815.936,566.762 800.77,562.429 788,550.5C 787.211,548.42 786.044,546.586 784.5,545C 784.836,543.97 785.503,543.47 786.5,543.5 Z"/></g>
<g><path style="opacity:1" fill="#969696" d="M 657.5,543.5 C 659.045,544.23 659.878,545.563 660,547.5C 661.327,566.143 662.16,584.809 662.5,603.5C 653.474,607.218 649.974,613.884 652,623.5C 655.704,631.939 662.204,635.606 671.5,634.5C 688.624,634.509 694.791,626.509 690,610.5C 686.689,608.097 683.189,606.097 679.5,604.5C 680.659,593.871 681.493,583.205 682,572.5C 682.939,564.579 684.439,556.912 686.5,549.5C 694.223,568.23 705.056,585.23 719,600.5C 733.872,625.141 729.039,644.975 704.5,660C 691.935,667.78 678.268,671.114 663.5,670C 652.008,666.727 641.341,661.727 631.5,655C 615.611,641.534 612.111,625.367 621,606.5C 631.054,593.446 640.72,580.113 650,566.5C 654.218,559.396 656.718,551.73 657.5,543.5 Z"/></g>
<g><path style="opacity:1" fill="#ebebeb" d="M 610.5,564.5 C 616.597,563.263 619.43,565.597 619,571.5C 616.525,574.524 613.525,575.19 610,573.5C 607.88,570.303 608.047,567.303 610.5,564.5 Z"/></g>
<g><path style="opacity:1" fill="#f2f2f2" d="M 722.5,564.5 C 730.284,563.926 732.284,566.926 728.5,573.5C 720.415,574.86 718.415,571.86 722.5,564.5 Z"/></g>
<g><path style="opacity:1" fill="#e0e0e0" d="M 587.5,578.5 C 591.812,580.289 595.479,583.123 598.5,587C 602.04,588.931 605.374,591.098 608.5,593.5C 596.063,612.813 595.396,632.48 606.5,652.5C 605.667,652.833 604.833,653.167 604,653.5C 581.867,646.016 562.7,633.85 546.5,617C 556.062,622.694 566.228,627.527 577,631.5C 579.329,626.681 581.162,621.681 582.5,616.5C 575.04,613.271 568.04,609.271 561.5,604.5C 568.548,594.118 577.215,585.452 587.5,578.5 Z"/></g>
<g><path style="opacity:1" fill="#e1e1e1" d="M 789.5,613.5 C 792.765,613.299 795.431,614.466 797.5,617C 796.027,617.71 795.36,618.876 795.5,620.5C 780.385,634.057 763.385,644.557 744.5,652C 742.099,653.039 739.766,653.206 737.5,652.5C 748.955,632.012 747.955,612.178 734.5,593C 741.723,589.554 748.056,584.887 753.5,579C 754.5,578.333 755.5,578.333 756.5,579C 764.278,584.61 771.278,591.11 777.5,598.5C 772.962,601.131 768.295,603.464 763.5,605.5C 765.244,610.398 766.578,615.398 767.5,620.5C 768,620.833 768.5,621.167 769,621.5C 775.818,618.729 782.651,616.062 789.5,613.5 Z"/></g>
<g><path style="opacity:1" fill="#1b1b1b" d="M 679.5,604.5 C 683.189,606.097 686.689,608.097 690,610.5C 694.791,626.509 688.624,634.509 671.5,634.5C 662.204,635.606 655.704,631.939 652,623.5C 649.974,613.884 653.474,607.218 662.5,603.5C 668.347,601.852 674.014,602.185 679.5,604.5 Z"/></g>
<g><path style="opacity:1" fill="#969696" d="M 992.5,627.5 C 992.897,626.475 993.563,626.308 994.5,627C 1012.74,641.268 1031.41,654.768 1050.5,667.5C 1051.48,685.49 1051.64,703.49 1051,721.5C 1050.97,727.652 1050.13,733.652 1048.5,739.5C 1023.01,708.529 1005.51,673.529 996,634.5C 994.979,632.03 993.812,629.696 992.5,627.5 Z"/></g>
<g><path style="opacity:0.078" fill="#e0e0e0" d="M 552.5,555.5 C 553.167,555.5 553.833,555.5 554.5,555.5C 550.341,558.749 545.674,561.249 540.5,563C 531.55,564.18 522.55,564.847 513.5,565C 511.772,568.849 510.439,572.849 509.5,577C 516.437,589.282 525.603,599.782 537,608.5C 537.667,609.5 537.667,610.5 537,611.5C 533.328,614.342 529.828,617.342 526.5,620.5C 537.083,632.586 548.749,643.419 561.5,653C 561,654.5 560.5,656 560,657.5C 558.832,678.326 560.166,698.993 564,719.5C 571.086,747.668 578.752,775.668 587,803.5C 587.667,810.5 587.667,817.5 587,824.5C 585.642,830.078 583.808,835.411 581.5,840.5C 577.833,839.833 574.167,839.167 570.5,838.5C 566.426,837.046 562.093,836.379 557.5,836.5C 554.645,836.503 551.978,836.836 549.5,837.5C 546.393,837.351 543.393,837.851 540.5,839C 536.778,841.19 533.111,843.356 529.5,845.5C 529.511,843.983 530.177,842.816 531.5,842C 535.682,838.91 540.349,836.91 545.5,836C 553.833,835.333 562.167,835.333 570.5,836C 573.172,836.834 575.839,837.668 578.5,838.5C 579.478,838.023 580.311,837.357 581,836.5C 582.383,833.141 583.716,829.807 585,826.5C 585.726,817.981 585.56,809.481 584.5,801C 578.659,781.095 572.825,761.262 567,741.5C 559.231,712.036 556.231,682.036 558,651.5C 544.826,642.989 533.66,632.489 524.5,620C 527.821,616.349 531.487,613.015 535.5,610C 525.332,601.664 516.332,592.164 508.5,581.5C 507.954,580.228 507.621,578.894 507.5,577.5C 508.643,572.56 509.976,567.727 511.5,563C 520.167,562.667 528.833,562.333 537.5,562C 543.013,560.908 548.013,558.741 552.5,555.5 Z"/></g>
<g><path style="opacity:1" fill="#6f6f6f" d="M 577.5,662.5 C 578.097,676.171 578.763,689.837 579.5,703.5C 576.889,689.905 576.223,676.238 577.5,662.5 Z"/></g>
<g><path style="opacity:0.047" fill="#c9c9c9" d="M 1093.5,676.5 C 1095.03,676.427 1096.03,677.094 1096.5,678.5C 1094.97,678.573 1093.97,677.906 1093.5,676.5 Z"/></g>
<g><path style="opacity:0.004" fill="#e2e2e2" d="M 1096.5,678.5 C 1098.03,678.427 1099.03,679.094 1099.5,680.5C 1097.97,680.573 1096.97,679.906 1096.5,678.5 Z"/></g>
<g><path style="opacity:1" fill="#e2e2e2" d="M 1066.5,679.5 C 1067.87,679.343 1069.21,679.51 1070.5,680C 1075.83,684 1081.17,688 1086.5,692C 1088.24,694.192 1089.4,696.692 1090,699.5C 1091.97,718.875 1090.3,737.875 1085,756.5C 1083.97,762.483 1083.14,768.483 1082.5,774.5C 1080.4,775.231 1078.4,775.231 1076.5,774.5C 1072.47,769.123 1067.97,764.123 1063,759.5C 1062.4,757.863 1061.9,756.197 1061.5,754.5C 1063.14,748.929 1064.31,743.262 1065,737.5C 1066.17,718.184 1066.67,698.851 1066.5,679.5 Z"/></g>
<g><path style="opacity:0.075" fill="#dbdbdb" d="M 1099.5,680.5 C 1101.03,680.427 1102.03,681.094 1102.5,682.5C 1100.97,682.573 1099.97,681.906 1099.5,680.5 Z"/></g>
<g><path style="opacity:0.118" fill="#d7d7d7" d="M 1102.5,682.5 C 1107.11,684.471 1111.44,686.971 1115.5,690C 1125.74,696.943 1135.74,704.11 1145.5,711.5C 1130.64,702.573 1116.31,692.907 1102.5,682.5 Z"/></g>
<g><path style="opacity:0.999" fill="#e0e0e0" d="M 857.5,707.5 C 858.813,720.22 860.313,732.886 862,745.5C 857.5,748.667 853,751.833 848.5,755C 845.041,755.791 841.707,756.791 838.5,758C 835.854,758.497 833.187,758.664 830.5,758.5C 830.67,757.178 830.337,756.011 829.5,755C 832.293,751.919 834.46,748.419 836,744.5C 841.79,730.591 847.29,716.591 852.5,702.5C 853.892,700.727 855.059,698.727 856,696.5C 856.548,700.17 857.048,703.837 857.5,707.5 Z"/></g>
<g><path style="opacity:1" fill="#979797" d="M 1108.5,708.5 C 1117.69,714.687 1126.85,721.021 1136,727.5C 1139.5,732.66 1141.83,738.326 1143,744.5C 1144.71,768.851 1140.88,792.184 1131.5,814.5C 1130.45,814.649 1129.45,814.483 1128.5,814C 1120.66,808.913 1112.99,803.58 1105.5,798C 1100.99,794.658 1096.99,790.825 1093.5,786.5C 1099.8,768.663 1103.8,750.33 1105.5,731.5C 1105.85,723.612 1106.85,715.946 1108.5,708.5 Z"/></g>
<g><path style="opacity:1" fill="#5d5d5d" d="M 877.5,697.5 C 877.638,702.414 876.972,707.081 875.5,711.5C 875.362,706.586 876.028,701.919 877.5,697.5 Z"/></g>
<g><path style="opacity:1" fill="#5b5b5b" d="M 1108.5,708.5 C 1106.85,715.946 1105.85,723.612 1105.5,731.5C 1105.5,723.5 1105.5,715.5 1105.5,707.5C 1106.79,707.263 1107.79,707.596 1108.5,708.5 Z"/></g>
<g><path style="opacity:0.004" fill="#e0e0e0" d="M 1145.5,711.5 C 1149.46,712.479 1152.79,714.479 1155.5,717.5C 1151.83,716 1148.49,714 1145.5,711.5 Z"/></g>
<g><path style="opacity:0.063" fill="#dbdbdb" d="M 1155.5,717.5 C 1159.05,718.723 1162.05,720.723 1164.5,723.5C 1160.98,722.241 1157.98,720.241 1155.5,717.5 Z"/></g>
<g><path style="opacity:1" fill="#e4e4e4" d="M 703.5,723.5 C 703.5,740.167 703.5,756.833 703.5,773.5C 679.44,773.93 658.773,765.93 641.5,749.5C 644.549,743.613 648.882,738.779 654.5,735C 670.276,728.815 686.61,724.981 703.5,723.5 Z"/></g>
<g><path style="opacity:0.008" fill="#d7d7d7" d="M 1016.5,726.5 C 1016.5,727.5 1016.5,728.5 1016.5,729.5C 1015.22,727.392 1014.72,725.058 1015,722.5C 1016.19,723.563 1016.69,724.897 1016.5,726.5 Z"/></g>
<g><path style="opacity:0.039" fill="#c6c6c6" d="M 1166.5,724.5 C 1175.21,728.513 1183.21,733.513 1190.5,739.5C 1182.73,735.444 1175.06,731.11 1167.5,726.5C 1166.7,726.043 1166.37,725.376 1166.5,724.5 Z"/></g>
<g><path style="opacity:0.2" fill="#868686" d="M 1021.5,733.5 C 1023.45,734.035 1024.45,735.368 1024.5,737.5C 1023.03,736.564 1022.03,735.23 1021.5,733.5 Z"/></g>
<g><path style="opacity:0.02" fill="#bcbcbc" d="M 1024.5,737.5 C 1025.91,737.973 1026.57,738.973 1026.5,740.5C 1025.09,740.027 1024.43,739.027 1024.5,737.5 Z"/></g>
<g><path style="opacity:0.294" fill="#979797" d="M 1026.5,740.5 C 1028.45,741.035 1029.45,742.368 1029.5,744.5C 1028.03,743.564 1027.03,742.23 1026.5,740.5 Z"/></g>
<g><path style="opacity:0.997" fill="#909090" d="M 1166.5,741.5 C 1162.99,740.945 1159.99,741.612 1157.5,743.5C 1156.6,742.791 1156.26,741.791 1156.5,740.5C 1160.04,740.187 1163.38,740.521 1166.5,741.5 Z"/></g>
<g><path style="opacity:0.071" fill="#bebebe" d="M 1190.5,739.5 C 1192.03,739.427 1193.03,740.094 1193.5,741.5C 1191.97,741.573 1190.97,740.906 1190.5,739.5 Z"/></g>
<g><path style="opacity:1" fill="#e2e2e2" d="M 1166.5,741.5 C 1171.7,744.873 1175.2,749.539 1177,755.5C 1182.95,781.67 1179.28,806.337 1166,829.5C 1163.76,831.282 1161.26,831.782 1158.5,831C 1153.09,828.305 1148.09,825.139 1143.5,821.5C 1147.86,812.103 1151.69,802.436 1155,792.5C 1158.89,776.26 1159.73,759.927 1157.5,743.5C 1159.99,741.612 1162.99,740.945 1166.5,741.5 Z"/></g>
<g><path style="opacity:0.122" fill="#c9c9c9" d="M 1193.5,741.5 C 1201.25,744.206 1208.25,748.206 1214.5,753.5C 1207,750.255 1200,746.255 1193.5,741.5 Z"/></g>
<g><path style="opacity:0.102" fill="#969696" d="M 1029.5,744.5 C 1031.45,745.035 1032.45,746.368 1032.5,748.5C 1031.03,747.564 1030.03,746.23 1029.5,744.5 Z"/></g>
<g><path style="opacity:0.016" fill="#999999" d="M 1034.5,750.5 C 1035.91,750.973 1036.57,751.973 1036.5,753.5C 1035.09,753.027 1034.43,752.027 1034.5,750.5 Z"/></g>
<g><path style="opacity:0.137" fill="#959595" d="M 1036.5,753.5 C 1038.53,754.539 1039.86,756.205 1040.5,758.5C 1038.46,757.421 1037.12,755.754 1036.5,753.5 Z"/></g>
<g><path style="opacity:0.051" fill="#cbcbcb" d="M 1216.5,754.5 C 1218.03,754.427 1219.03,755.094 1219.5,756.5C 1217.97,756.573 1216.97,755.906 1216.5,754.5 Z"/></g>
<g><path style="opacity:0.02" fill="#b6b6b6" d="M 1040.5,758.5 C 1042.91,759.911 1044.58,761.911 1045.5,764.5C 1043.09,763.089 1041.42,761.089 1040.5,758.5 Z"/></g>
<g><path style="opacity:0.997" fill="#969696" d="M 869.5,847.5 C 865.623,845.137 862.123,842.137 859,838.5C 858.505,836.527 858.338,834.527 858.5,832.5C 858.937,824.914 857.771,817.581 855,810.5C 848.512,798.509 841.012,787.176 832.5,776.5C 843.755,773.248 854.588,768.914 865,763.5C 873.247,778.252 885.08,788.918 900.5,795.5C 894.723,815.747 884.39,833.08 869.5,847.5 Z"/></g>
<g><path style="opacity:1" fill="#969696" d="M 1193.5,762.5 C 1203.32,768.111 1213.32,773.611 1223.5,779C 1224.33,780.816 1225.16,782.649 1226,784.5C 1226.9,792.165 1227.73,799.831 1228.5,807.5C 1227.92,816.19 1227.09,824.857 1226,833.5C 1225.3,836.609 1224.14,839.442 1222.5,842C 1216.5,842.667 1210.5,842.667 1204.5,842C 1196.27,840.287 1188.1,838.454 1180,836.5C 1182.91,827.8 1186.24,819.133 1190,810.5C 1194.53,794.762 1195.69,778.762 1193.5,762.5 Z"/></g>
<g><path style="opacity:0.012" fill="#c3c3c3" d="M 1047.5,766.5 C 1049.59,767.585 1050.92,769.251 1051.5,771.5C 1049.41,770.415 1048.08,768.749 1047.5,766.5 Z"/></g>
<g><path style="opacity:0.106" fill="#c8c8c8" d="M 1219.5,756.5 C 1238.65,766.239 1257.98,775.739 1277.5,785C 1290.39,789.57 1303.06,794.404 1315.5,799.5C 1310.7,798.906 1306.04,797.74 1301.5,796C 1273.03,785.265 1245.7,772.099 1219.5,756.5 Z"/></g>
<g><path style="opacity:0.004" fill="#e3e3e3" d="M 1051.5,771.5 C 1052.5,771.833 1053.17,772.5 1053.5,773.5C 1052.17,773.5 1051.5,772.833 1051.5,771.5 Z"/></g>
<g><path style="opacity:0.38" fill="#b3b3b3" d="M 1019.5,749.5 C 1020.93,751.148 1021.76,753.148 1022,755.5C 1023.28,763.157 1024.44,770.824 1025.5,778.5C 1022.63,769.127 1020.63,759.46 1019.5,749.5 Z"/></g>
<g><path style="opacity:0.004" fill="#d3d3d3" d="M 1053.5,773.5 C 1055.83,775.167 1057.83,777.167 1059.5,779.5C 1056.5,778.5 1054.5,776.5 1053.5,773.5 Z"/></g>
<g><path style="opacity:0.016" fill="#c3c3c3" d="M 1059.5,779.5 C 1060.83,780.167 1061.83,781.167 1062.5,782.5C 1060.5,782.5 1059.5,781.5 1059.5,779.5 Z"/></g>
<g><path style="opacity:0.271" fill="#aaaaaa" d="M 1025.5,779.5 C 1026.83,781.444 1027.16,783.444 1026.5,785.5C 1025.54,783.735 1025.21,781.735 1025.5,779.5 Z"/></g>
<g><path style="opacity:0.012" fill="#c4c4c4" d="M 1062.5,782.5 C 1067.17,786.5 1071.5,790.833 1075.5,795.5C 1070.17,792.167 1065.83,787.833 1062.5,782.5 Z"/></g>
<g><path style="opacity:0.009" fill="#e7e7e7" d="M 1026.5,785.5 C 1027.12,785.611 1027.62,785.944 1028,786.5C 1028.5,788.81 1028.66,791.143 1028.5,793.5C 1027.63,790.997 1026.96,788.33 1026.5,785.5 Z"/></g>
<g><path style="opacity:1" fill="#e3e3e3" d="M 1243.5,789.5 C 1252,791.577 1260,795.077 1267.5,800C 1281.37,805.295 1295.04,810.462 1308.5,815.5C 1308.17,816.167 1307.83,816.833 1307.5,817.5C 1294.46,824.344 1281.13,830.51 1267.5,836C 1258.2,838.259 1248.87,839.425 1239.5,839.5C 1244.23,823.113 1245.57,806.447 1243.5,789.5 Z"/></g>
<g><path style="opacity:0.004" fill="#dcdcdc" d="M 819.5,789.5 C 821.262,790.262 822.262,791.596 822.5,793.5C 820.738,792.738 819.738,791.404 819.5,789.5 Z"/></g>
<g><path style="opacity:0.006" fill="#d2d2d2" d="M 814.5,790.5 C 814.206,793.754 812.873,796.421 810.5,798.5C 810.896,795.279 812.229,792.612 814.5,790.5 Z"/></g>
<g><path style="opacity:0.031" fill="#bfbfbf" d="M 822.5,793.5 C 824.262,794.262 825.262,795.596 825.5,797.5C 823.738,796.738 822.738,795.404 822.5,793.5 Z"/></g>
<g><path style="opacity:0.004" fill="#dddddd" d="M 1075.5,795.5 C 1076.83,796.167 1077.83,797.167 1078.5,798.5C 1076.5,798.5 1075.5,797.5 1075.5,795.5 Z"/></g>
<g><path style="opacity:0.082" fill="#d2d2d2" d="M 700.5,849.5 C 704.634,848.515 708.968,848.182 713.5,848.5C 710.978,838.042 708.144,827.709 705,817.5C 704.287,808.666 703.12,799.999 701.5,791.5C 696.821,791.334 692.155,791.501 687.5,792C 681.291,801.586 674.957,811.086 668.5,820.5C 665.474,823.947 662.474,827.281 659.5,830.5C 668.357,817.304 677.357,804.138 686.5,791C 692.157,790.501 697.824,790.334 703.5,790.5C 705.455,810.609 709.455,830.276 715.5,849.5C 710.5,849.5 705.5,849.5 700.5,849.5 Z"/></g>
<g><path style="opacity:0.322" fill="#b9b9b9" d="M 1078.5,798.5 C 1081.43,799.757 1083.76,801.757 1085.5,804.5C 1082.57,803.243 1080.24,801.243 1078.5,798.5 Z"/></g>
<g><path style="opacity:0.031" fill="#d4d4d4" d="M 825.5,797.5 C 826.974,798.436 827.974,799.77 828.5,801.5C 826.554,800.965 825.554,799.632 825.5,797.5 Z"/></g>
<g><path style="opacity:0.122" fill="#c1c1c1" d="M 1315.5,799.5 C 1324.51,800.835 1333.51,802.168 1342.5,803.5C 1342.5,803.833 1342.5,804.167 1342.5,804.5C 1333.13,804.206 1324.13,802.539 1315.5,799.5 Z"/></g>
<g><path style="opacity:0.008" fill="#dadada" d="M 828.5,801.5 C 830.25,802.659 831.25,804.326 831.5,806.5C 829.75,805.341 828.75,803.674 828.5,801.5 Z"/></g>
<g><path style="opacity:0.071" fill="#d1d1d1" d="M 919.5,805.5 C 918.504,805.414 917.671,805.748 917,806.5C 916.576,809.025 915.41,811.025 913.5,812.5C 914.371,809.888 915.037,807.221 915.5,804.5C 917.099,804.232 918.432,804.566 919.5,805.5 Z"/></g>
<g><path style="opacity:0.671" fill="#6e6e6e" d="M 920.5,805.5 C 923.491,805.166 925.824,806.166 927.5,808.5C 924.843,808.065 922.509,807.065 920.5,805.5 Z"/></g>
<g><path style="opacity:0.016" fill="#ebebeb" d="M 1342.5,804.5 C 1342.5,804.167 1342.5,803.833 1342.5,803.5C 1346.11,803.211 1349.61,803.544 1353,804.5C 1353.38,808.275 1351.55,810.275 1347.5,810.5C 1348.72,808.549 1350.38,807.049 1352.5,806C 1349.21,805.174 1345.87,804.674 1342.5,804.5 Z"/></g>
<g><path style="opacity:0.008" fill="#cdcdcd" d="M 810.5,798.5 C 808.492,804.529 805.492,809.863 801.5,814.5C 803.057,810.422 804.89,806.422 807,802.5C 807.949,800.907 809.115,799.574 810.5,798.5 Z"/></g>
<g><path style="opacity:0.055" fill="#d4d4d4" d="M 831.5,806.5 C 833.262,807.262 834.262,808.596 834.5,810.5C 832.554,809.965 831.554,808.632 831.5,806.5 Z"/></g>
<g><path style="opacity:0.184" fill="#d9d9d9" d="M 1029.5,800.5 C 1030.65,800.791 1031.32,801.624 1031.5,803C 1032.16,805.462 1032.49,807.962 1032.5,810.5C 1031.01,807.417 1030.01,804.083 1029.5,800.5 Z"/></g>
<g><path style="opacity:0.075" fill="#c6c6c6" d="M 1085.5,804.5 C 1088.09,805.419 1090.09,807.086 1091.5,809.5C 1088.91,808.581 1086.91,806.914 1085.5,804.5 Z"/></g>
<g><path style="opacity:0.275" fill="#aeaeae" d="M 1091.5,809.5 C 1093.4,809.738 1094.74,810.738 1095.5,812.5C 1093.6,812.262 1092.26,811.262 1091.5,809.5 Z"/></g>
<g><path style="opacity:0.014" fill="#e0e0e0" d="M 1032.5,810.5 C 1033.12,810.611 1033.62,810.944 1034,811.5C 1034.61,814.827 1035.11,818.161 1035.5,821.5C 1033.43,818.237 1032.43,814.57 1032.5,810.5 Z"/></g>
<g><path style="opacity:0.012" fill="#dadada" d="M 1347.5,810.5 C 1347.03,811.906 1346.03,812.573 1344.5,812.5C 1344.97,811.094 1345.97,810.427 1347.5,810.5 Z"/></g>
<g><path style="opacity:0.953" fill="#434343" d="M 931.5,810.5 C 935.548,810.84 939.548,811.506 943.5,812.5C 946.981,813.558 949.648,815.558 951.5,818.5C 950.833,818.5 950.167,818.5 949.5,818.5C 943.671,815.309 937.671,812.642 931.5,810.5 Z"/></g>
<g><path style="opacity:0.388" fill="#969696" d="M 1095.5,812.5 C 1097.03,812.427 1098.03,813.094 1098.5,814.5C 1096.97,814.573 1095.97,813.906 1095.5,812.5 Z"/></g>
<g><path style="opacity:0.016" fill="#d5d5d5" d="M 1344.5,812.5 C 1344.03,813.906 1343.03,814.573 1341.5,814.5C 1341.97,813.094 1342.97,812.427 1344.5,812.5 Z"/></g>
<g><path style="opacity:0.165" fill="#ababab" d="M 834.5,810.5 C 837.201,813.235 838.868,816.569 839.5,820.5C 839.167,820.5 838.833,820.5 838.5,820.5C 836.713,817.369 835.379,814.036 834.5,810.5 Z"/></g>
<g><path style="opacity:0.004" fill="#d6d6d6" d="M 1340.5,815.5 C 1340.03,816.906 1339.03,817.573 1337.5,817.5C 1337.97,816.094 1338.97,815.427 1340.5,815.5 Z"/></g>
<g><path style="opacity:0.075" fill="#cacaca" d="M 801.5,814.5 C 800.281,818.24 798.781,821.907 797,825.5C 796.292,826.381 795.458,827.047 794.5,827.5C 796.059,822.712 798.393,818.379 801.5,814.5 Z"/></g>
<g><path style="opacity:0.141" fill="#b8b8b8" d="M 1098.5,814.5 C 1101.79,816.458 1104.79,818.791 1107.5,821.5C 1103.64,820.306 1100.64,817.973 1098.5,814.5 Z"/></g>
<g><path style="opacity:0.067" fill="#cfcfcf" d="M 913.5,812.5 C 913.148,817.777 911.148,822.111 907.5,825.5C 909.264,820.978 911.264,816.645 913.5,812.5 Z"/></g>
<g><path style="opacity:0.027" fill="#cdcdcd" d="M 1337.5,817.5 C 1334.4,820.933 1330.73,823.6 1326.5,825.5C 1329.63,822.102 1333.29,819.435 1337.5,817.5 Z"/></g>
<g><path style="opacity:0.012" fill="#e6e6e6" d="M 949.5,818.5 C 950.167,818.5 950.833,818.5 951.5,818.5C 952.167,819.167 952.833,819.833 953.5,820.5C 951.62,820.771 950.287,820.104 949.5,818.5 Z"/></g>
<g><path style="opacity:0.043" fill="#d2d2d2" d="M 953.5,820.5 C 955.027,820.427 956.027,821.094 956.5,822.5C 954.973,822.573 953.973,821.906 953.5,820.5 Z"/></g>
<g><path style="opacity:0.09" fill="#cdcdcd" d="M 956.5,822.5 C 958.38,822.229 959.713,822.896 960.5,824.5C 958.847,824.34 957.514,823.674 956.5,822.5 Z"/></g>
<g><path style="opacity:0.082" fill="#c7c7c7" d="M 1107.5,821.5 C 1109.03,821.427 1110.03,822.094 1110.5,823.5C 1108.97,823.573 1107.97,822.906 1107.5,821.5 Z"/></g>
<g><path style="opacity:1" fill="#4b4b4b" d="M 725.5,820.5 C 738.952,831.032 754.285,835.032 771.5,832.5C 767.232,842.142 763.065,851.809 759,861.5C 758.572,869.693 755.405,876.526 749.5,882C 740.453,888.238 730.453,891.905 719.5,893C 706.815,893.708 694.148,893.541 681.5,892.5C 686.425,872.019 699.425,863.519 720.5,867C 729.727,868.38 738.894,869.88 748,871.5C 748.595,870.101 748.428,868.768 747.5,867.5C 742.17,860.839 737.337,853.839 733,846.5C 730.191,837.933 727.691,829.266 725.5,820.5 Z"/></g>
<g><path style="opacity:0.067" fill="#c6c6c6" d="M 1110.5,823.5 C 1112.03,823.427 1113.03,824.094 1113.5,825.5C 1111.97,825.573 1110.97,824.906 1110.5,823.5 Z"/></g>
<g><path style="opacity:0.145" fill="#c0c0c0" d="M 960.5,824.5 C 962.027,824.427 963.027,825.094 963.5,826.5C 961.973,826.573 960.973,825.906 960.5,824.5 Z"/></g>
<g><path style="opacity:0.059" fill="#d1d1d1" d="M 1113.5,825.5 C 1115.03,825.427 1116.03,826.094 1116.5,827.5C 1114.97,827.573 1113.97,826.906 1113.5,825.5 Z"/></g>
<g><path style="opacity:0.275" fill="#a4a4a4" d="M 963.5,826.5 C 965.027,826.427 966.027,827.094 966.5,828.5C 964.973,828.573 963.973,827.906 963.5,826.5 Z"/></g>
<g><path style="opacity:0.122" fill="#bebebe" d="M 1324.5,826.5 C 1322.85,828.326 1320.85,829.66 1318.5,830.5C 1319.8,828.178 1321.8,826.845 1324.5,826.5 Z"/></g>
<g><path style="opacity:0.027" fill="#cfcfcf" d="M 794.5,827.5 C 794.539,830.089 793.539,832.089 791.5,833.5C 791.992,831.181 792.992,829.181 794.5,827.5 Z"/></g>
<g><path style="opacity:0.004" fill="#e6e6e6" d="M 967.5,829.5 C 968.5,829.833 969.167,830.5 969.5,831.5C 968.167,831.5 967.5,830.833 967.5,829.5 Z"/></g>
<g><path style="opacity:1" fill="#4b4b4b" d="M 604.5,827.5 C 604.351,828.552 604.517,829.552 605,830.5C 610.529,835.537 616.695,839.537 623.5,842.5C 598.057,866.367 567.723,877.701 532.5,876.5C 533.384,866.596 538.384,859.43 547.5,855C 550.269,854.137 553.102,853.637 556,853.5C 565.593,855.537 575.26,857.204 585,858.5C 586.167,858.167 587.333,857.833 588.5,857.5C 596.927,849.093 602.26,839.093 604.5,827.5 Z"/></g>
<g><path style="opacity:0.027" fill="#d2d2d2" d="M 659.5,830.5 C 659.262,832.404 658.262,833.738 656.5,834.5C 656.738,832.596 657.738,831.262 659.5,830.5 Z"/></g>
<g><path style="opacity:0.496" fill="#c8c8c8" d="M 838.5,820.5 C 838.833,820.5 839.167,820.5 839.5,820.5C 840.436,824.735 840.769,829.069 840.5,833.5C 831.167,833.5 821.833,833.5 812.5,833.5C 821.318,832.507 830.318,832.173 839.5,832.5C 839.354,828.481 839.021,824.481 838.5,820.5 Z"/></g>
<g><path style="opacity:0.012" fill="#cecece" d="M 1120.5,829.5 C 1122.78,830.449 1124.78,831.782 1126.5,833.5C 1123.71,833.378 1121.71,832.044 1120.5,829.5 Z"/></g>
<g><path style="opacity:0.008" fill="#d5d5d5" d="M 969.5,831.5 C 972.19,833.193 974.19,835.527 975.5,838.5C 972.781,836.781 970.781,834.447 969.5,831.5 Z"/></g>
<g><path style="opacity:0.482" fill="#a6a6a6" d="M 812.5,833.5 C 808.383,835.203 804.05,836.537 799.5,837.5C 803.272,834.8 807.605,833.466 812.5,833.5 Z"/></g>
<g><path style="opacity:1" fill="#4b4b4b" d="M 1018.5,829.5 C 1022.85,841.215 1027.52,852.882 1032.5,864.5C 1029.18,866.828 1025.51,868.661 1021.5,870C 996.496,875.86 971.163,878.193 945.5,877C 944.409,874.936 944.242,872.769 945,870.5C 946.771,869.696 948.271,868.529 949.5,867C 966.952,867.546 983.285,863.713 998.5,855.5C 998.833,854.667 999.167,853.833 999.5,853C 998.777,849.163 998.111,845.33 997.5,841.5C 1003.53,839.662 1009.53,837.495 1015.5,835C 1017.68,833.814 1018.68,831.981 1018.5,829.5 Z"/></g>
<g><path style="opacity:0.035" fill="#d5d5d5" d="M 1126.5,833.5 C 1128.67,833.75 1130.34,834.75 1131.5,836.5C 1129.33,836.25 1127.66,835.25 1126.5,833.5 Z"/></g>
<g><path style="opacity:0.043" fill="#d6d6d6" d="M 1316.5,831.5 C 1313.84,834.502 1310.51,836.502 1306.5,837.5C 1309.49,835 1312.83,833 1316.5,831.5 Z"/></g>
<g><path style="opacity:0.051" fill="#cdcdcd" d="M 907.5,825.5 C 906.41,830.568 904.076,834.901 900.5,838.5C 902.439,833.91 904.773,829.577 907.5,825.5 Z"/></g>
<g><path style="opacity:1" fill="#505050" d="M 549.5,837.5 C 551.978,836.836 554.645,836.503 557.5,836.5C 562.093,836.379 566.426,837.046 570.5,838.5C 563.524,837.768 556.524,837.435 549.5,837.5 Z"/></g>
<g><path style="opacity:0.004" fill="#cfcfcf" d="M 790.5,835.5 C 790.715,837.179 790.048,838.179 788.5,838.5C 788.932,837.29 789.599,836.29 790.5,835.5 Z"/></g>
<g><path style="opacity:0.075" fill="#d0d0d0" d="M 1131.5,836.5 C 1134.75,836.794 1137.42,838.127 1139.5,840.5C 1136.52,839.674 1133.85,838.341 1131.5,836.5 Z"/></g>
<g><path style="opacity:0.059" fill="#c5c5c5" d="M 799.5,837.5 C 795.833,840.5 792.5,843.833 789.5,847.5C 791.167,842.5 794.5,839.167 799.5,837.5 Z"/></g>
<g><path style="opacity:1" fill="#4b4b4b" d="M 858.5,832.5 C 858.338,834.527 858.505,836.527 859,838.5C 862.123,842.137 865.623,845.137 869.5,847.5C 862.433,854.372 854.1,859.205 844.5,862C 830.894,864.076 817.228,865.576 803.5,866.5C 802.053,860.102 804.053,855.269 809.5,852C 823.805,850.844 838.138,850.177 852.5,850C 855.259,844.339 857.259,838.506 858.5,832.5 Z"/></g>
<g><path style="opacity:0.024" fill="#d2d2d2" d="M 900.5,838.5 C 900.446,840.632 899.446,841.965 897.5,842.5C 897.738,840.596 898.738,839.262 900.5,838.5 Z"/></g>
<g><path style="opacity:0.757" fill="#646464" d="M 1297.5,840.5 C 1297.5,840.833 1297.5,841.167 1297.5,841.5C 1296.49,842.674 1295.15,843.34 1293.5,843.5C 1294.05,841.468 1295.38,840.468 1297.5,840.5 Z"/></g>
<g><path style="opacity:0.063" fill="#c2c2c2" d="M 1306.5,837.5 C 1303.91,839.625 1300.91,840.958 1297.5,841.5C 1297.5,841.167 1297.5,840.833 1297.5,840.5C 1300.41,839.213 1303.41,838.213 1306.5,837.5 Z"/></g>
<g><path style="opacity:0.004" fill="#dfdfdf" d="M 656.5,834.5 C 654.407,838.712 651.407,842.045 647.5,844.5C 649.788,840.544 652.788,837.211 656.5,834.5 Z"/></g>
<g><path style="opacity:0.043" fill="#b3b3b3" d="M 1139.5,840.5 C 1142.48,840.182 1144.81,841.182 1146.5,843.5C 1143.94,842.912 1141.6,841.912 1139.5,840.5 Z"/></g>
<g><path style="opacity:0.006" fill="#b4b4b4" d="M 975.5,838.5 C 978.375,840.249 979.708,842.915 979.5,846.5C 978.167,846.5 976.833,846.5 975.5,846.5C 977.636,844.061 977.636,841.394 975.5,838.5 Z"/></g>
<g><path style="opacity:0.033" fill="#e8e8e8" d="M 1035.5,821.5 C 1039.35,830.558 1042.68,839.891 1045.5,849.5C 1040.8,840.735 1037.47,831.401 1035.5,821.5 Z"/></g>
<g><path style="opacity:0.043" fill="#d0d0d0" d="M 897.5,842.5 C 897.446,844.632 896.446,845.965 894.5,846.5C 895.026,844.77 896.026,843.436 897.5,842.5 Z"/></g>
<g><path style="opacity:0.012" fill="#e0e0e0" d="M 646.5,845.5 C 644.5,849.5 641.5,852.5 637.5,854.5C 640.167,851.167 643.167,848.167 646.5,845.5 Z"/></g>
<g><path style="opacity:0.031" fill="#c7c7c7" d="M 894.5,846.5 C 894.446,848.632 893.446,849.965 891.5,850.5C 891.738,848.596 892.738,847.262 894.5,846.5 Z"/></g>
<g><path style="opacity:0.043" fill="#cdcdcd" d="M 1151.5,845.5 C 1155.94,846.414 1159.94,848.081 1163.5,850.5C 1158.95,849.885 1154.95,848.219 1151.5,845.5 Z"/></g>
<g><path style="opacity:0.596" fill="#999999" d="M 975.5,846.5 C 966.734,848.318 957.734,849.318 948.5,849.5C 957.292,847.902 966.292,846.902 975.5,846.5 Z"/></g>
<g><path style="opacity:0.059" fill="#d1d1d1" d="M 789.5,847.5 C 789.34,849.153 788.674,850.486 787.5,851.5C 787.229,849.62 787.896,848.287 789.5,847.5 Z"/></g>
<g><path style="opacity:0.404" fill="#d0d0d0" d="M 700.5,849.5 C 698.095,850.768 695.428,851.435 692.5,851.5C 694.838,849.96 697.505,849.294 700.5,849.5 Z"/></g>
<g><path style="opacity:0.286" fill="#cfcfcf" d="M 1163.5,850.5 C 1167.16,850.723 1170.5,851.723 1173.5,853.5C 1169.79,853.41 1166.45,852.41 1163.5,850.5 Z"/></g>
<g><path style="opacity:0.02" fill="#cacaca" d="M 1288.5,845.5 C 1284.04,848.657 1279.04,850.657 1273.5,851.5C 1278.12,848.734 1283.12,846.734 1288.5,845.5 Z"/></g>
<g><path style="opacity:0.027" fill="#e1e1e1" d="M 1045.5,849.5 C 1046.38,849.369 1047.04,849.702 1047.5,850.5C 1050.96,857.124 1054.63,863.624 1058.5,870C 1055.41,874.05 1051.41,876.884 1046.5,878.5C 1050.05,875.558 1053.39,872.392 1056.5,869C 1051.79,863.117 1048.13,856.617 1045.5,849.5 Z"/></g>
<g><path style="opacity:0.098" fill="#c5c5c5" d="M 1273.5,851.5 C 1267.19,854.166 1260.53,855.833 1253.5,856.5C 1259.87,854.088 1266.53,852.421 1273.5,851.5 Z"/></g>
<g><path style="opacity:0.004" fill="#e5e5e5" d="M 637.5,854.5 C 637.5,856.5 636.5,857.5 634.5,857.5C 635.167,856.167 636.167,855.167 637.5,854.5 Z"/></g>
<g><path style="opacity:0.027" fill="#e2e2e2" d="M 692.5,851.5 C 688.537,854.154 684.537,856.82 680.5,859.5C 680.414,858.504 680.748,857.671 681.5,857C 684.86,854.454 688.526,852.621 692.5,851.5 Z"/></g>
<g><path style="opacity:0.004" fill="#cbcbcb" d="M 781.5,853.5 C 781.834,856.491 780.834,858.824 778.5,860.5C 779.264,857.982 780.264,855.649 781.5,853.5 Z"/></g>
<g><path style="opacity:0.008" fill="#d4d4d4" d="M 891.5,850.5 C 889.167,854.833 885.833,858.167 881.5,860.5C 884.5,856.833 887.833,853.5 891.5,850.5 Z"/></g>
<g><path style="opacity:0.686" fill="#848484" d="M 1187.5,856.5 C 1204.45,858.194 1221.45,858.861 1238.5,858.5C 1226.67,859.66 1214.67,859.826 1202.5,859C 1197.27,858.704 1192.27,857.871 1187.5,856.5 Z"/></g>
<g><path style="opacity:0.016" fill="#e6e6e6" d="M 948.5,849.5 C 944.88,850.837 941.213,852.337 937.5,854C 928.453,858.928 924.953,866.428 927,876.5C 928.705,882.4 929.872,888.4 930.5,894.5C 925.832,884.91 924.332,874.577 926,863.5C 931.023,854.903 938.523,850.236 948.5,849.5 Z"/></g>
<g><path style="opacity:0.008" fill="#dedede" d="M 633.5,858.5 C 629.491,863.679 624.491,867.679 618.5,870.5C 622.913,865.79 627.913,861.79 633.5,858.5 Z"/></g>
<g><path style="opacity:0.063" fill="#d9d9d9" d="M 881.5,860.5 C 881.141,862.371 880.141,863.871 878.5,865C 875.941,866.777 873.274,868.277 870.5,869.5C 873.851,866.152 877.518,863.152 881.5,860.5 Z"/></g>
<g><path style="opacity:0.01" fill="#cbcbcb" d="M 777.5,863.5 C 777.88,865.698 777.213,867.365 775.5,868.5C 775.402,866.447 776.069,864.78 777.5,863.5 Z"/></g>
<g><path style="opacity:0.18" fill="#9a9a9a" d="M 786.5,858.5 C 786.5,864.167 786.5,869.833 786.5,875.5C 785.883,875.389 785.383,875.056 785,874.5C 784.333,869.5 784.333,864.5 785,859.5C 785.383,858.944 785.883,858.611 786.5,858.5 Z"/></g>
<g><path style="opacity:0.051" fill="#e7e7e7" d="M 680.5,859.5 C 678.205,862.297 675.705,864.964 673,867.5C 671.303,870.672 669.47,873.672 667.5,876.5C 669.206,868.798 673.539,863.131 680.5,859.5 Z"/></g>
<g><path style="opacity:0.055" fill="#c6c6c6" d="M 618.5,870.5 C 616.66,872.669 614.326,874.002 611.5,874.5C 613.336,872.412 615.669,871.079 618.5,870.5 Z"/></g>
<g><path style="opacity:0.192" fill="#bdbdbd" d="M 870.5,869.5 C 867.086,872.54 863.086,874.54 858.5,875.5C 862.182,872.992 866.182,870.992 870.5,869.5 Z"/></g>
<g><path style="opacity:0.017" fill="#d4d4d4" d="M 775.5,870.5 C 774.863,873.456 774.363,876.456 774,879.5C 773.617,880.056 773.117,880.389 772.5,880.5C 772.804,877.478 773.304,874.478 774,871.5C 774.383,870.944 774.883,870.611 775.5,870.5 Z"/></g>
<g><path style="opacity:0.122" fill="#e9e9e9" d="M 667.5,876.5 C 667.065,879.157 666.065,881.491 664.5,883.5C 664.179,880.423 665.179,878.09 667.5,876.5 Z"/></g>
<g><path style="opacity:0.014" fill="#dedede" d="M 854.5,877.5 C 853.158,878.793 851.491,879.626 849.5,880C 842.893,881.379 836.227,882.213 829.5,882.5C 829.5,882.167 829.5,881.833 829.5,881.5C 837.835,880.166 846.168,878.833 854.5,877.5 Z"/></g>
<g><path style="opacity:0.188" fill="#b0b0b0" d="M 829.5,881.5 C 829.5,881.833 829.5,882.167 829.5,882.5C 815.107,884.634 800.773,884.967 786.5,883.5C 789.5,883.5 792.5,883.5 795.5,883.5C 806.852,883.135 818.186,882.468 829.5,881.5 Z"/></g>
<g><path style="opacity:0.114" fill="#c5c5c5" d="M 608.5,876.5 C 606.287,878.86 603.621,880.694 600.5,882C 594.655,884.67 588.655,886.836 582.5,888.5C 591.128,884.521 599.795,880.521 608.5,876.5 Z"/></g>
<g><path style="opacity:0.969" fill="#4b4b4b" d="M 786.5,877.5 C 787.451,878.919 787.784,880.585 787.5,882.5C 790.385,882.194 793.052,882.527 795.5,883.5C 792.5,883.5 789.5,883.5 786.5,883.5C 786.5,881.5 786.5,879.5 786.5,877.5 Z"/></g>
<g><path style="opacity:0.025" fill="#e3e3e3" d="M 529.5,845.5 C 518.19,859.07 511.523,874.736 509.5,892.5C 524.109,894.153 538.775,894.82 553.5,894.5C 538.982,895.729 524.315,895.562 509.5,894C 508.643,893.311 507.977,892.478 507.5,891.5C 509.574,882.404 512.074,873.404 515,864.5C 517.064,860.039 519.398,855.706 522,851.5C 523.793,848.532 526.293,846.532 529.5,845.5 Z"/></g>
<g><path style="opacity:0.173" fill="#dcdcdc" d="M 664.5,883.5 C 663.87,887.048 662.87,890.381 661.5,893.5C 661.288,889.655 662.288,886.321 664.5,883.5 Z"/></g>
<g><path style="opacity:0.008" fill="#cbcbcb" d="M 1046.5,878.5 C 1042.12,882.024 1037.12,884.524 1031.5,886C 1027.69,887.772 1023.69,888.605 1019.5,888.5C 1028.55,885.59 1037.55,882.257 1046.5,878.5 Z"/></g>
<g><path style="opacity:0.027" fill="#cfcfcf" d="M 771.5,883.5 C 770.567,886.37 768.9,888.704 766.5,890.5C 767.433,887.63 769.1,885.296 771.5,883.5 Z"/></g>
<g><path style="opacity:0.09" fill="#bdbdbd" d="M 580.5,888.5 C 579.22,889.931 577.553,890.598 575.5,890.5C 576.78,889.069 578.447,888.402 580.5,888.5 Z"/></g>
<g><path style="opacity:0.22" fill="#b9b9b9" d="M 1019.5,888.5 C 1016.83,890.118 1013.83,890.785 1010.5,890.5C 1013.27,889.343 1016.27,888.676 1019.5,888.5 Z"/></g>
<g><path style="opacity:0.055" fill="#b7b7b7" d="M 573.5,890.5 C 569.924,892.728 565.924,893.728 561.5,893.5C 565.226,891.87 569.226,890.87 573.5,890.5 Z"/></g>
<g><path style="opacity:0.027" fill="#b9b9b9" d="M 1010.5,890.5 C 1008.19,892.068 1005.52,892.902 1002.5,893C 995.533,893.997 988.533,894.497 981.5,894.5C 978.833,894.5 976.167,894.5 973.5,894.5C 985.682,893.105 998.016,891.771 1010.5,890.5 Z"/></g>
<g><path style="opacity:0.008" fill="#e4e4e4" d="M 765.5,891.5 C 763.767,895.565 760.767,898.232 756.5,899.5C 759.474,896.862 762.474,894.195 765.5,891.5 Z"/></g>
<g><path style="opacity:0.022" fill="#f3f3f3" d="M 661.5,893.5 C 660.575,897.79 659.909,902.124 659.5,906.5C 658.596,907.209 658.263,908.209 658.5,909.5C 657.522,909.189 656.855,908.522 656.5,907.5C 657.641,906.575 657.641,905.741 656.5,905C 658.228,901.128 659.895,897.295 661.5,893.5 Z"/></g>
<g><path style="opacity:0.149" fill="#d6d6d6" d="M 930.5,894.5 C 944.833,894.5 959.167,894.5 973.5,894.5C 976.167,894.5 978.833,894.5 981.5,894.5C 972.835,895.338 964.001,896.004 955,896.5C 946.664,896.022 938.497,895.355 930.5,894.5 Z"/></g>
<g><path style="opacity:0.02" fill="#d1d1d1" d="M 756.5,899.5 C 756.027,900.906 755.027,901.573 753.5,901.5C 753.973,900.094 754.973,899.427 756.5,899.5 Z"/></g>
<g><path style="opacity:0.047" fill="#c6c6c6" d="M 753.5,901.5 C 752.713,903.104 751.38,903.771 749.5,903.5C 750.514,902.326 751.847,901.66 753.5,901.5 Z"/></g>
<g><path style="opacity:0.043" fill="#adadad" d="M 747.5,904.5 C 746.22,905.931 744.553,906.598 742.5,906.5C 743.78,905.069 745.447,904.402 747.5,904.5 Z"/></g>
<g><path style="opacity:0.008" fill="#d1d1d1" d="M 742.5,906.5 C 737.977,909.216 732.977,910.549 727.5,910.5C 732.303,908.855 737.303,907.522 742.5,906.5 Z"/></g>
<g><path style="opacity:0.976" fill="#646464" d="M 659.5,906.5 C 662.548,908.119 665.881,909.119 669.5,909.5C 665.833,909.5 662.167,909.5 658.5,909.5C 658.263,908.209 658.596,907.209 659.5,906.5 Z"/></g>
<g><path style="opacity:0.08" fill="#dfdfdf" d="M 658.5,909.5 C 662.167,909.5 665.833,909.5 669.5,909.5C 675.726,909.388 681.726,910.054 687.5,911.5C 677.651,911.295 667.984,910.628 658.5,909.5 Z"/></g>
</svg>
